<svg height="512pt" viewBox="0 0 512 512" width="512pt" xmlns="http://www.w3.org/2000/svg"><path d="m512 256c0 141.386719-114.613281 256-256 256s-256-114.613281-256-256 114.613281-256 256-256 256 114.613281 256 256zm0 0" fill="#0a77e8"/><path d="m510.304688 285.445312-141.875-141.875-253.988282 261.609376 104.082032 104.082031c12.234374 1.792969 24.746093 2.738281 37.476562 2.738281 131.425781 0 239.699219-99.042969 254.304688-226.554688zm0 0" fill="#085aae"/><path d="m368.429688 143.570312c-30.03125-30.03125-69.960938-46.570312-112.429688-46.570312l-49.6875 159 49.6875 159c42.46875 0 82.398438-16.539062 112.429688-46.570312s46.570312-69.960938 46.570312-112.429688-16.539062-82.398438-46.570312-112.429688zm0 0" fill="#13bdf7"/><path d="m143.570312 143.570312c-30.03125 30.03125-46.570312 69.960938-46.570312 112.429688 0 28.996094 7.839844 57.238281 22.714844 81.929688l-12.894532 59.628906 7.621094 7.621094 59.628906-12.894532c24.691407 14.875 52.933594 22.714844 81.929688 22.714844v-318c-42.46875 0-82.398438 16.539062-112.429688 46.570312zm0 0" fill="#65eaff"/><path d="m256 134.265625-49.6875 121.734375 49.6875 121.734375c67.230469 0 121.734375-54.503906 121.734375-121.734375s-54.503906-121.734375-121.734375-121.734375zm0 0" fill="#b2f5ff"/><path d="m134.265625 256c0 67.230469 54.503906 121.734375 121.734375 121.734375v-243.46875c-67.230469 0-121.734375 54.503906-121.734375 121.734375zm0 0" fill="#fff"/><path d="m256 152.898438-49.6875 103.101562 49.6875 103.101562c56.941406 0 103.101562-46.160156 103.101562-103.101562s-46.160156-103.101562-103.101562-103.101562zm0 0" fill="#ff3cad"/><path d="m152.898438 256c0 56.941406 46.160156 103.101562 103.101562 103.101562v-206.203124c-56.941406 0-103.101562 46.160156-103.101562 103.101562zm0 0" fill="#fe6192"/><g fill="#fff"><path d="m246.683594 171.53125h18.632812v18.632812h-18.632812zm0 0"/><path d="m246.683594 208.796875h18.632812v131.671875h-18.632812zm0 0"/></g></svg>