<svg height="512pt" viewBox="0 0 512 512" width="512pt" xmlns="http://www.w3.org/2000/svg"><path d="m512 256c0 141.386719-114.613281 256-256 256s-256-114.613281-256-256 114.613281-256 256-256 256 114.613281 256 256zm0 0" fill="#0a77e8"/><path d="m511.710938 268.054688-117.710938-117.710938-276 243.65625 117.152344 117.152344c6.875.554687 13.828125.847656 20.847656.847656 137.34375 0 249.414062-108.160156 255.710938-243.945312zm0 0" fill="#085aae"/><path d="m304.515625 150.34375-32.882813-32.34375h-56.601562v32.34375l89.484375 114.28125h89.484375v-114.28125zm0 0" fill="#f98e2e"/><path d="m215.03125 150.34375h89.484375v114.28125h-89.484375zm0 0" fill="#fab037"/><path d="m256 215.03125-32.882812-32.34375h-56.601563v32.34375l89.484375 114.28125h89.484375v-114.28125zm0 0" fill="#fbf24a"/><path d="m166.515625 215.03125h89.484375v114.28125h-89.484375zm0 0" fill="#fdf9a5"/><path d="m207.484375 279.71875-32.882813-32.34375h-56.601562v32.34375l89.484375 114.28125h89.484375v-114.28125zm0 0" fill="#fab037"/><path d="m118 279.71875h89.484375v114.28125h-89.484375zm0 0" fill="#fbd141"/></svg>