<svg height="512pt" viewBox="0 0 512 512" width="512pt" xmlns="http://www.w3.org/2000/svg"><path d="m512 256c0 141.386719-114.613281 256-256 256s-256-114.613281-256-256 114.613281-256 256-256 256 114.613281 256 256zm0 0" fill="#fbf24a"/><path d="m512 256c0-.136719-.003906-.273438-.003906-.410156l-138.792969-138.792969h-234.40625l-48.542969 161.9375-22.003906 22.003906 22.003906 22 16.640625 39.363281 149.882813 149.886719c141.027344-.417969 255.222656-114.863281 255.222656-255.988281zm0 0" fill="#fbd141"/><path d="m256 377.742188-14.667969 55.007812h69.671875c0-30.332031-24.675781-55.007812-55.003906-55.007812zm0 0" fill="#ff3cad"/><path d="m200.996094 432.75h55.003906v-55.007812c-30.328125 0-55.003906 24.675781-55.003906 55.007812zm0 0" fill="#fe6192"/><path d="m355.742188 366.742188c0 30.332031-24.675782 55.003906-55.003907 55.003906h-44.738281l-14.667969 11.003906 14.667969 11h44.738281c42.460938 0 77.003907-34.546875 77.003907-77.007812zm0 0" fill="#828282"/><path d="m202.101562 421.746094c-.722656 3.558594-1.105468 7.234375-1.105468 11.003906v11h55.003906v-22.003906zm0 0" fill="#a1a1a1"/><path d="m391.816406 159.78125c-26.28125-47.988281-77.246094-80.53125-135.816406-80.53125l-22.003906 27.503906 22.003906 27.503906c26.640625 0 51.691406 10.375 70.527344 29.210938 19.25 19.25 50.160156 21.445312 71.898437 5.105469zm0 0" fill="#242424"/><path d="m120.183594 159.78125s-6.609375 8.792969-6.609375 8.792969c9.757812 7.335937 21.359375 10.933593 32.929687 10.933593 14.207032 0 28.359375-5.429687 38.96875-16.039062 18.835938-18.835938 43.886719-29.210938 70.527344-29.210938v-55.007812c-58.570312 0-109.535156 32.542969-135.816406 80.53125zm0 0" fill="#434343"/><path d="m68.25 278.734375h33.003906v22.003906h-33.003906zm0 0" fill="#636363"/><path d="m410.746094 278.734375h33.003906v22.003906h-33.003906zm0 0" fill="#434343"/><path d="m373.203125 116.796875c-31.308594-31.304687-72.929687-48.546875-117.203125-48.546875l-11 11 11 11.003906c79.261719 0 143.746094 64.480469 143.746094 143.742188v22.738281h22v-22.738281c0-44.269532-17.238282-85.894532-48.542969-117.199219zm0 0" fill="#434343"/><path d="m112.253906 256.734375h-22v-22.738281c0-44.269532 17.238282-85.894532 48.542969-117.199219 31.308594-31.304687 72.929687-48.546875 117.203125-48.546875v22.003906c-79.261719 0-143.746094 64.480469-143.746094 143.742188zm0 0" fill="#636363"/><path d="m145.257812 201.730469-22.003906 88.007812 22.003906 88.007813c30.328126 0 55.003907-24.675782 55.003907-55.007813v-66.003906c0-30.332031-24.675781-55.003906-55.003907-55.003906zm0 0" fill="#ff9ed6"/><path d="m90.253906 256.734375v66.003906c0 30.332031 24.671875 55.003907 55.003906 55.003907v-176.011719c-30.332031 0-55.003906 24.671875-55.003906 55.003906zm0 0" fill="#434343"/><path d="m311.738281 256.734375v66.003906c0 30.332031 24.675781 55.003907 55.003907 55.003907l22.003906-88.007813-22.003906-88.007813c-30.328126.003907-55.003907 24.675782-55.003907 55.007813zm0 0" fill="#ff3cad"/><path d="m366.742188 201.730469v176.015625c30.332031 0 55.003906-24.675782 55.003906-55.007813v-66.003906c0-30.332031-24.671875-55.003906-55.003906-55.003906zm0 0" fill="#242424"/></svg>